<svg xmlns="http://www.w3.org/2000/svg" xmlns:xlink="http://www.w3.org/1999/xlink" viewBox="0 0 32 32"><defs><path id="a" d="M0 .383h16.815v18.95H0z"/></defs><g fill="none" fill-rule="evenodd"><g transform="translate(8 12.667)"><mask id="b" fill="#fff"><use xlink:href="#a"/></mask><path fill="#F4A41D" d="M16.27 6.52l-5-5.48A2.41 2.41 0 0 0 9.64.38H6.38c-.6 0-1.14.24-1.5.66L.43 6.46c-.6.72-.54 1.79.06 2.62l1.49 2.03 2.86-3.75v7.5l2.8 3.52c.48.6 1.2.95 1.85.95.17 0 .35 0 .47-.06a1.92 1.92 0 0 0 1.5-1.78l.05-.42v-9.9l3.4 4.12 1.43-2.15c.71-.77.6-1.9-.06-2.62" mask="url(#b)"/></g><path fill="#F4A41D" d="M15.99 0a5.92 5.92 0 0 1 5.95 5.9c0 3.26-2.66 5.9-5.95 5.9a5.93 5.93 0 0 1-5.96-5.9c0-3.26 2.66-5.9 5.96-5.9"/></g></svg>