<svg xmlns="http://www.w3.org/2000/svg" viewBox="0 0 155.9 53.4"><path d="M137.7 32l-8.4-9.2c-.7-.7-1.8-1.1-2.7-1.1h-5.5c-1 0-1.9.4-2.5 1.1l-7.5 9.1c-1 1.2-.9 3 .1 4.4l2.5 3.4 4.8-6.3V46l4.7 5.9c.8 1 2 1.6 3.1 1.6.3 0 .6 0 .8-.1 1.4-.3 2.4-1.5 2.5-3l.1-.7V33.1l5.7 6.9 2.4-3.6c1.2-1.3 1-3.2-.1-4.4z" fill="#f4a41d"/><g fill="#e00f21"><path d="M0 9.6C0 4 4-.2 9.6-.2c6.6 0 9.7 4.6 9.7 10.2v1.3h-12c.5 1.7 1.8 2.5 3.5 2.5 1.4 0 2.6-.6 3.8-1.9l4.2 3.3c-1.8 2.4-4.5 4-8.5 4C4.2 19.2 0 15.4 0 9.6zm12.3-1.8C12.1 6.1 11.1 5 9.7 5 8.4 5 7.5 6 7.2 7.8h5.1zM20.8 0h7.8v2.8c.9-1.5 3.1-3 5.7-3 3.9 0 6.4 2.6 6.4 6.7V19h-7.8V9c0-1.6-1-2.5-2.1-2.5-1.2 0-2.2.9-2.2 2.5v10h-7.8V0zM41.6 9.6c0-5.6 4.1-9.8 9.7-9.8C57.9-.2 61 4.4 61 10v1.3H49c.5 1.7 1.8 2.5 3.5 2.5 1.4 0 2.6-.6 3.8-1.9l4.2 3.3c-1.8 2.4-4.6 4-8.6 4-6.1 0-10.3-3.8-10.3-9.6zM54 7.8C53.8 6.1 52.8 5 51.4 5c-1.3 0-2.2 1-2.5 2.8H54zM62.4 0h7.8v4c.9-2.5 2.6-4.1 6.1-4v7.8h-1.1c-3.3 0-5 2.1-5 6.2v5h-7.8V0z"/><path d="M76.2 9.6c0-5.2 4.2-9.8 10.2-9.8 4.1 0 7 2.1 8.5 5.1L89.4 8c-.6-1.2-1.4-1.9-2.6-1.9-1.6 0-2.7 1.4-2.7 3.3v.1c0 1.9 1.1 3.3 2.7 3.3 1.4 0 2.1-.7 2.8-1.9l5.6 3.2c-1.7 3.1-4.6 5-9 5-5.8.1-10-4.3-10-9.5z"/><path d="M94.4 9.6c0-5.3 4.3-9.7 10.4-9.7 6.1 0 10.4 4.4 10.4 9.6v.1c0 5.2-4.3 9.7-10.4 9.7-6.1-.1-10.4-4.5-10.4-9.7zm13.9 0c0-1.9-1.4-3.4-3.1-3.4-1.7 0-3 1.5-3 3.2v.1c0 1.8 1.4 3.3 3.1 3.3 1.7 0 3-1.5 3-3.2z"/></g><ellipse cx="123.8" cy="9.7" rx="10" ry="9.9" fill="#f4a41d"/><path d="M135.1 0h6.9v2.5c1.7-1.4 2.9-2.7 5.7-2.7 4.5 0 8.2 3.9 8.2 9.5v.1c0 5.9-3.7 9.8-8.1 9.8-2.8 0-4-1.2-5.8-2.5v7.6h-6.9V0zm13 9.5c0-1.9-1.3-3.4-3-3.4-1.8 0-3 1.5-3 3.3v.1c0 1.8 1.3 3.3 3 3.3 1.8.1 3-1.4 3-3.3z" fill="#e00f21"/><g fill="#f4ae38" stroke="#f4ae38" stroke-width=".5" stroke-miterlimit="10"><path d="M1.4 27.2h2.3v8.3h5.2v2.1H1.4V27.2zM9.8 31c1-.1 1.5-.6 1.4-1.5h-.9v-2.4h2.4v2c0 1-.2 1.7-.7 2.1-.5.4-1.1.6-2 .7l-.2-.9zM18.3 37.7c-.6 0-1.1-.1-1.6-.3-.5-.2-.9-.5-1.3-.8-.4-.4-.7-.8-.9-1.3-.2-.5-.3-1.1-.3-1.7v0c0-.6.1-1.1.3-1.6.2-.5.5-.9.8-1.3.3-.4.8-.7 1.2-.9.5-.2 1-.3 1.6-.3.7 0 1.2.1 1.7.4.5.2.9.6 1.2 1 .3.4.6.9.7 1.4.2.5.2 1.1.2 1.6v.6h-5.5c.1.5.3.9.7 1.2.3.3.8.4 1.3.4.4 0 .7-.1 1-.2.3-.1.6-.3.9-.6l1.3 1.1c-.4.5-.8.8-1.4 1.1-.6.1-1.2.2-1.9.2zm1.4-4.7c-.1-.5-.2-.9-.5-1.2-.3-.3-.7-.5-1.1-.5-.5 0-.9.2-1.1.5-.3.3-.5.7-.6 1.2h3.3zm-.9-6.9l1.9.8-1.9 1.8h-1.7l1.7-2.6zM23.6 29.6h2.2v1.1c.1-.2.3-.3.4-.5.2-.2.3-.3.5-.4l.6-.3c.2-.1.5-.1.8-.1.9 0 1.5.3 2 .8s.7 1.2.7 2.2v5.1h-2.2v-4.4c0-.5-.1-.9-.4-1.2-.2-.3-.6-.4-1-.4s-.8.1-1 .4c-.3.3-.4.7-.4 1.2v4.4h-2.2v-7.9zM36.6 37.7c-.6 0-1.1-.1-1.6-.3-.5-.2-.9-.5-1.3-.8-.4-.4-.7-.8-.9-1.3-.2-.5-.3-1.1-.3-1.7v0c0-.6.1-1.1.3-1.6.2-.5.5-.9.8-1.3.3-.4.8-.7 1.2-.9.5-.2 1-.3 1.6-.3.7 0 1.2.1 1.7.4.5.2.9.6 1.2 1 .3.4.6.9.7 1.4.2.5.2 1.1.2 1.6v.6h-5.5c.1.5.3.9.7 1.2.3.3.8.4 1.3.4.4 0 .7-.1 1-.2.3-.1.6-.3.9-.6l1.3 1.1c-.4.5-.8.8-1.4 1.1-.6.1-1.2.2-1.9.2zM38 33c-.1-.5-.2-.9-.5-1.2-.3-.3-.7-.5-1.1-.5-.5 0-.9.2-1.1.5-.3.3-.5.7-.6 1.2H38zM41.9 29.6h2.2v1.6c.2-.5.5-1 .9-1.3.4-.3.9-.5 1.6-.4v2.3h-.1c-.7 0-1.3.2-1.8.7-.4.5-.6 1.2-.6 2.1v2.9h-2.2v-7.9zM51.6 39.9c-.7 0-1.3-.1-1.9-.2-.6-.1-1.1-.3-1.6-.6l.8-1.7c.4.2.8.4 1.2.5.4.1.9.2 1.4.2.8 0 1.3-.2 1.7-.5.4-.4.6-.9.6-1.6v-.4c-.3.4-.7.7-1.1.9-.4.2-.9.3-1.5.3-.5 0-.9-.1-1.3-.2-.4-.2-.8-.4-1.1-.7-.3-.3-.6-.7-.8-1.2-.2-.5-.3-1-.3-1.6v0c0-.6.1-1.1.3-1.6.2-.5.5-.8.8-1.2.3-.3.7-.6 1.1-.7.4-.2.9-.2 1.3-.2.6 0 1.1.1 1.5.3.4.2.7.5 1 .8v-1H56v6.1c0 1.4-.3 2.4-1 3.1-.4.4-.8.6-1.4.8-.6.4-1.2.4-2 .4zm.3-4.9c.3 0 .5 0 .8-.1.2-.1.4-.2.6-.4.2-.2.3-.4.4-.6.1-.2.1-.5.1-.7v0c0-.3 0-.5-.1-.7-.1-.2-.2-.4-.4-.6-.2-.2-.4-.3-.6-.4-.2-.1-.5-.1-.8-.1-.3 0-.5 0-.8.1-.2.1-.4.2-.6.4-.2.2-.3.4-.4.6-.1.2-.1.5-.1.7v0c0 .6.2 1 .5 1.3.4.4.8.5 1.4.5zM58.1 26.8h2.4v2h-2.4v-2zm0 2.8h2.2v7.9h-2.2v-7.9zM66.2 37.7c-.6 0-1.1-.1-1.6-.3-.5-.2-.9-.5-1.3-.8-.4-.4-.7-.8-.9-1.3-.2-.5-.3-1.1-.3-1.7v0c0-.6.1-1.1.3-1.6.2-.5.5-.9.8-1.3.3-.4.8-.7 1.2-.9.5-.2 1-.3 1.6-.3.7 0 1.2.1 1.7.4.5.2.9.6 1.2 1 .3.4.6.9.7 1.4.2.5.2 1.1.2 1.6v.6h-5.5c.1.5.3.9.7 1.2.3.3.8.4 1.3.4.4 0 .7-.1 1-.2.3-.1.6-.3.9-.6l1.3 1.1c-.4.5-.8.8-1.4 1.1-.5.1-1.1.2-1.9.2zm1.5-4.7c-.1-.5-.2-.9-.5-1.2-.3-.3-.7-.5-1.1-.5-.5 0-.9.2-1.1.5-.3.3-.5.7-.6 1.2h3.3zM1.3 42.8h2.2v1.1c.1-.2.3-.3.4-.5.2-.2.3-.3.5-.4l.6-.3c.2-.1.5-.1.8-.1.5 0 1 .1 1.4.3.4.2.7.5.9.9.3-.4.7-.7 1.2-.9.4-.2.9-.3 1.4-.3.8 0 1.5.2 2 .7.5.5.7 1.2.7 2.2v5.2h-2.2v-4.4c0-.5-.1-.9-.3-1.2-.2-.3-.6-.4-1-.4s-.8.1-1 .4c-.2.3-.4.7-.4 1.2v4.4H6.2v-4.4c0-.5-.1-.9-.3-1.2-.2-.3-.6-.4-1-.4s-.8.1-1 .4c-.2.3-.4.7-.4 1.2v4.4H1.3v-7.9zM15.4 39.9h2.4v2h-2.4v-2zm0 2.9h2.2v7.9h-2.2v-7.9zM19.9 39.9h2.2v10.8h-2.2V39.9zM24.3 39.9h2.4v2h-2.4v-2zm0 2.9h2.2v7.9h-2.2v-7.9zM31.4 50.8c-.3 0-.7 0-.9-.1-.3-.1-.5-.2-.7-.4-.2-.2-.4-.4-.5-.7-.1-.3-.2-.7-.2-1.1v-3.8h-.9v-1.9h.9v-2h2.2v2h1.9v1.9h-1.9v3.4c0 .5.2.8.7.8.4 0 .8-.1 1.1-.3v1.8c-.2.1-.5.2-.8.3-.2.1-.6.1-.9.1zM37.1 50.8c-.4 0-.7-.1-1.1-.2-.3-.1-.6-.3-.9-.5-.2-.2-.4-.5-.6-.8-.1-.3-.2-.6-.2-1v0c0-.4.1-.8.2-1.1.2-.3.4-.6.7-.8.3-.2.6-.4 1-.5.4-.1.8-.2 1.3-.2.4 0 .8 0 1.1.1.3.1.6.1.9.2v0c0-.5-.1-.8-.4-1.1-.3-.2-.7-.4-1.3-.4-.4 0-.8 0-1.1.1-.3.1-.7.2-1 .3l-.7-1.6c.4-.2.9-.3 1.4-.5.5-.1 1-.2 1.7-.2.6 0 1.1.1 1.6.2.4.2.8.4 1.1.7.3.3.5.7.7 1.1.1.4.2.9.2 1.4v4.6h-2.2v-.9c-.3.3-.6.5-1 .7-.4.3-.9.4-1.4.4zm.7-1.5c.5 0 1-.1 1.3-.4.3-.3.5-.6.5-1v-.4c-.2-.1-.4-.2-.7-.2-.2-.1-.5-.1-.8-.1-.5 0-.9.1-1.1.3-.3.2-.4.5-.4.8v0c0 .3.1.5.3.7.2.2.5.3.9.3zM43.6 42.8h2.2v1.1c.1-.2.3-.3.4-.5.2-.2.3-.3.5-.4l.6-.3c.2-.1.5-.1.8-.1.9 0 1.5.3 2 .8s.7 1.2.7 2.2v5.1h-2.2v-4.4c0-.5-.1-.9-.4-1.2-.2-.3-.6-.4-1-.4s-.8.1-1 .4c-.3.3-.4.7-.4 1.2v4.4h-2.2v-7.9zM55.5 50.8c-.3 0-.7 0-.9-.1-.3-.1-.5-.2-.7-.4-.2-.2-.4-.4-.5-.7-.1-.3-.2-.7-.2-1.1v-3.8h-.9v-1.9h.9v-2h2.2v2h1.9v1.9h-1.9v3.4c0 .5.2.8.7.8.4 0 .8-.1 1.1-.3v1.8c-.2.1-.5.2-.8.3-.2.1-.6.1-.9.1zM62.7 50.9c-.6 0-1.1-.1-1.6-.3-.5-.2-.9-.5-1.3-.8-.4-.4-.7-.8-.9-1.3-.2-.5-.3-1.1-.3-1.7v0c0-.6.1-1.1.3-1.6.2-.5.5-.9.8-1.3.3-.4.8-.7 1.2-.9.5-.2 1-.3 1.6-.3.7 0 1.2.1 1.7.4.5.2.9.6 1.2 1 .3.4.6.9.7 1.4.2.5.2 1.1.2 1.6v.6h-5.5c.1.5.3.9.7 1.2.3.3.8.4 1.3.4.4 0 .7-.1 1-.2.3-.1.6-.3.9-.6l1.3 1.1c-.4.5-.8.8-1.4 1.1-.6 0-1.2.2-1.9.2zm1.4-4.8c-.1-.5-.2-.9-.5-1.2-.3-.3-.7-.5-1.1-.5-.5 0-.9.2-1.1.5-.3.3-.5.7-.6 1.2h3.3z"/></g><path d="M137.7 32l-8.4-9.2c-.7-.7-1.8-1.1-2.7-1.1h-5.5c-1 0-1.9.4-2.5 1.1l-7.5 9.1c-1 1.2-.9 3 .1 4.4l2.5 3.4 4.8-6.3V46l4.7 5.9c.8 1 2 1.6 3.1 1.6.3 0 .6 0 .8-.1 1.4-.3 2.4-1.5 2.5-3l.1-.7V33.1l5.7 6.9 2.4-3.6c1.2-1.3 1-3.2-.1-4.4z" fill="#f4a41d"/><ellipse cx="123.8" cy="9.7" rx="10" ry="9.9" fill="#f4a41d"/></svg>